<svg width="368" height="113" viewBox="0 0 368 113" fill="none" xmlns="http://www.w3.org/2000/svg">
<path d="M38.5875 77.1041C37.3558 77.1041 36.3135 76.7962 35.4607 76.1803C34.5606 75.5644 33.4947 74.688 32.2629 73.5509C31.0311 72.4139 29.6572 71.0164 28.1412 69.3582C27.5727 68.6949 27.2884 68.1027 27.2884 67.5816C27.2884 67.0605 27.5727 66.4683 28.1412 65.805C31.0785 62.4887 33.7552 60.0489 36.1714 58.4855C36.7399 58.1065 37.5453 57.917 38.5875 57.917C41.8091 57.917 44.5806 56.7089 46.902 54.2927C49.2708 51.8766 50.4078 47.9681 50.313 42.5673C50.2656 36.74 48.8207 32.6657 45.9781 30.3443C43.183 28.0229 39.3456 26.8622 34.4659 26.8622H31.0548C27.928 26.8622 25.7961 27.5255 24.6591 28.852C23.5221 30.1785 22.9536 32.4525 22.9536 35.6741V107.377C22.9536 108.798 22.6456 109.793 22.0297 110.362C21.4612 110.883 20.4663 111.144 19.0451 111.144H3.90854C2.48727 111.144 1.46869 110.883 0.852809 110.362C0.284301 109.793 4.69685e-05 108.798 4.69685e-05 107.377V28.2835C4.69685e-05 23.5459 0.426428 19.8032 1.27919 17.0554C2.17933 14.2603 3.88485 12.2705 6.39576 11.0861C8.95405 9.85434 12.673 9.23846 17.5527 9.23846H34.4659C48.0627 9.23846 58.13 11.9152 64.6679 17.2686C71.2057 22.5747 74.4746 30.7233 74.4746 41.7145C74.4746 49.9579 72.7454 56.6852 69.287 61.8965C65.8759 67.1079 61.4226 70.9453 55.927 73.4088C50.4788 75.8724 44.699 77.1041 38.5875 77.1041ZM110.973 112.92C99.0342 112.92 89.5827 109.746 82.6185 103.398C75.6543 97.0493 72.1722 87.5978 72.1722 75.0433C72.1722 62.1571 75.7727 52.5398 82.9738 46.1915C90.2223 39.7958 99.8869 36.5979 111.968 36.5979C123.622 36.5979 132.955 39.7484 139.967 46.0494C146.978 52.303 150.484 61.5412 150.484 73.7641C150.484 86.5082 146.978 96.2202 139.967 102.9C132.955 109.58 123.291 112.92 110.973 112.92ZM111.683 95.7228C116.895 95.7228 120.827 94.112 123.48 90.8904C126.133 87.6215 127.46 82.0549 127.46 74.1905C127.46 66.7052 126.109 61.4465 123.409 58.4144C120.756 55.335 116.8 53.7953 111.541 53.7953C106.472 53.7953 102.469 55.4534 99.5316 58.7697C96.6417 62.0387 95.1967 67.3684 95.1967 74.759C95.1967 82.4813 96.5706 87.9058 99.3184 91.0326C102.114 94.1594 106.235 95.7228 111.683 95.7228ZM178.739 112.92C173.67 112.92 169.453 112.494 166.09 111.641C162.773 110.788 160.097 109.77 158.06 108.585C156.07 107.353 154.506 106.24 153.369 105.245C152.517 104.44 152.422 103.54 153.085 102.545L160.334 91.8143C161.376 90.2983 162.56 90.2035 163.887 91.53C165.261 92.8565 167.108 94.1594 169.43 95.4385C171.798 96.6703 174.736 97.2862 178.242 97.2862C181.368 97.2862 183.927 96.765 185.916 95.7228C187.954 94.6331 188.972 93.0697 188.972 91.0326C188.972 89.6113 188.522 88.4506 187.622 87.5505C186.722 86.6503 185.135 85.7265 182.861 84.779C180.587 83.8315 177.412 82.6234 173.338 81.1547C167.321 78.9755 162.773 76.3461 159.694 73.2667C156.615 70.1873 155.075 65.6866 155.075 59.7646C155.075 54.3164 156.567 49.8868 159.552 46.4757C162.584 43.0647 166.445 40.5775 171.135 39.0141C175.873 37.4033 180.8 36.5979 185.916 36.5979C192.407 36.5979 196.955 37.2138 199.561 38.4456C202.214 39.63 203.919 40.5538 204.677 41.217C205.388 41.8329 205.885 42.5436 206.17 43.349C206.785 45.1966 207.259 47.6365 207.591 50.6685C207.78 52.4214 207.33 53.5821 206.241 54.1506C205.672 54.4822 204.772 54.8376 203.54 55.2166C202.308 55.5956 201.077 55.9272 199.845 56.2114C198.613 56.4957 197.689 56.6378 197.073 56.6378C196.884 56.6378 196.671 56.5905 196.434 56.4957C196.244 56.3536 195.889 56.0456 195.368 55.5719C194.752 54.956 193.686 54.2454 192.17 53.44C190.701 52.6346 188.664 52.2319 186.059 52.2319C183.5 52.2319 181.345 52.6583 179.592 53.511C177.886 54.3164 177.033 55.7614 177.033 57.8459C177.033 60.1199 178.123 61.8255 180.302 62.9625C182.529 64.0995 186.177 65.5681 191.246 67.3684C195.226 68.7423 198.684 70.2583 201.621 71.9165C204.606 73.5273 206.904 75.6592 208.515 78.3122C210.125 80.9179 210.931 84.4474 210.931 88.9007C210.931 94.6805 209.344 99.347 206.17 102.9C203.043 106.406 199.016 108.964 194.089 110.575C189.209 112.138 184.092 112.92 178.739 112.92ZM243.521 112.92C227.697 112.92 219.785 104.7 219.785 88.2611V54.9323H211.755C210.334 54.9323 209.339 54.6481 208.77 54.0795C208.249 53.4637 207.989 52.4451 207.989 51.0238V42.283C207.989 40.8617 208.249 39.8668 208.77 39.2983C209.339 38.6824 210.334 38.3745 211.755 38.3745H219.785V26.9333C219.785 25.7963 220.022 24.9198 220.496 24.3039C222.486 21.6983 225.399 18.8794 229.237 15.8474C229.9 15.3736 230.492 15.1367 231.013 15.1367C231.582 15.1367 232.15 15.3736 232.719 15.8474C234.756 17.4108 236.462 18.8794 237.835 20.2533C239.257 21.6272 240.465 22.9774 241.46 24.3039C241.933 24.9198 242.17 25.7963 242.17 26.9333V38.3745H254.749C256.17 38.3745 257.141 38.6824 257.662 39.2983C258.231 39.8668 258.515 40.8617 258.515 42.283V51.0238C258.515 52.4451 258.231 53.4637 257.662 54.0795C257.141 54.6481 256.17 54.9323 254.749 54.9323H242.17V84.3526C242.17 91.9327 244.918 95.7228 250.414 95.7228C251.266 95.7228 252.048 95.6517 252.759 95.5096C253.469 95.3201 254.085 95.1306 254.606 94.9411C255.601 94.5621 256.288 94.4199 256.667 94.5147C257.094 94.6094 257.473 95.1306 257.804 96.0781L261.926 107.093C262.352 108.277 262.068 109.13 261.073 109.651C260.363 109.983 258.633 110.599 255.886 111.499C253.185 112.446 249.063 112.92 243.521 112.92ZM263.319 14.4972C263.319 13.8813 263.508 13.3365 263.887 12.8627C264.266 12.3889 264.764 11.7731 265.38 11.015C266.706 9.49902 268.246 7.91194 269.999 6.25379C271.752 4.54827 273.528 2.9138 275.329 1.35041C276.466 0.450269 277.318 0.000200063 277.887 0.000200063C278.455 0.000200063 279.332 0.450269 280.516 1.35041C284.354 4.6667 287.623 7.88825 290.323 11.015C290.939 11.7257 291.436 12.3416 291.815 12.8627C292.242 13.3365 292.455 13.8813 292.455 14.4972C292.455 15.113 292.242 15.6579 291.815 16.1316C291.436 16.6054 290.915 17.2449 290.252 18.0503C288.973 19.519 287.48 21.1061 285.775 22.8116C284.069 24.4697 282.316 26.0568 280.516 27.5728C279.853 28.1414 279.332 28.5204 278.953 28.7099C278.574 28.852 278.218 28.9231 277.887 28.9231C277.555 28.9231 277.2 28.852 276.821 28.7099C276.489 28.5204 275.944 28.1414 275.186 27.5728C273.291 26.0568 271.515 24.4697 269.857 22.8116C268.199 21.1061 266.706 19.4716 265.38 17.9082C264.764 17.1502 264.266 16.558 263.887 16.1316C263.508 15.6579 263.319 15.113 263.319 14.4972ZM289.044 107.377C289.044 108.798 288.736 109.793 288.12 110.362C287.551 110.883 286.557 111.144 285.135 111.144H270.496C269.075 111.144 268.056 110.883 267.441 110.362C266.872 109.793 266.588 108.798 266.588 107.377V42.1409C266.588 40.7196 266.872 39.7484 267.441 39.2273C268.056 38.6588 269.075 38.3745 270.496 38.3745H285.135C286.557 38.3745 287.551 38.6588 288.12 39.2273C288.736 39.7484 289.044 40.7196 289.044 42.1409V107.377ZM336.77 112.92C328.764 112.92 321.799 111.641 315.877 109.083C309.955 106.477 305.36 102.45 302.091 97.0019C298.822 91.5537 297.188 84.5184 297.188 75.896C297.188 62.9625 300.504 53.1794 307.137 46.5468C313.769 39.9142 322.581 36.5979 333.572 36.5979C340.726 36.5979 346.766 37.8771 351.693 40.4353C356.668 42.9936 360.434 46.5231 362.993 51.0238C365.598 55.5245 366.901 60.6648 366.901 66.4446C366.901 72.0823 365.456 76.0145 362.566 78.2411C359.676 80.4678 355.46 81.5811 349.917 81.5811H319.431C319.81 86.4608 321.586 90.1798 324.76 92.7381C327.982 95.2964 332.34 96.5755 337.836 96.5755C342.195 96.5755 345.677 95.936 348.282 94.6568C350.935 93.3303 352.783 92.288 353.825 91.53C354.725 90.8668 355.744 90.5588 356.881 90.6062C357.781 90.6062 359.06 90.7957 360.718 91.1747C362.424 91.5063 364.106 92.1459 365.764 93.0934C366.948 93.7093 367.541 94.5621 367.541 95.6517C367.541 96.2676 367.422 97.144 367.185 98.2811C367.043 98.9443 366.806 99.9155 366.475 101.195C366.143 102.426 365.717 103.587 365.196 104.677C364.911 105.198 364.461 105.695 363.845 106.169C362.898 106.832 361.358 107.709 359.226 108.798C357.142 109.888 354.275 110.836 350.627 111.641C346.98 112.494 342.36 112.92 336.77 112.92ZM319.288 67.0131H342.455C344.871 67.0131 346.079 65.8998 346.079 63.6731C346.079 60.3094 345.013 57.4906 342.882 55.2166C340.797 52.8952 337.647 51.7344 333.43 51.7344C328.835 51.7344 325.447 53.2031 323.268 56.1404C321.136 59.0777 319.81 62.7019 319.288 67.0131Z" fill="white"/>
</svg>
